<svg width="46" height="46" viewBox="0 0 46 46" fill="none" xmlns="http://www.w3.org/2000/svg">
<path d="M45.3943 28.7725C46.5987 34.1624 43.2056 39.5082 37.8156 40.7125L16.8638 45.3941C11.4738 46.5985 6.12805 43.2053 4.92378 37.8153L0.242776 16.8642C-0.96146 11.4744 2.43159 6.12876 7.82143 4.9244L28.7727 0.242827C34.1627 -0.961553 39.5084 2.4315 40.7128 7.82143L45.3943 28.7725ZM22.9344 10.6852C16.4625 10.6852 11.2156 15.932 11.2156 22.4039C11.2156 28.8758 16.4625 34.1227 22.9344 34.1227C29.4063 34.1227 34.6531 28.8758 34.6531 22.4039C34.6531 15.932 29.4063 10.6852 22.9344 10.6852ZM26.9972 19.6496C27.7886 20.4066 27.2528 21.7418 26.1577 21.7418C25.4869 21.7418 24.9432 22.2856 24.9432 22.9563V27.0357C24.9432 28.1452 24.0438 29.0445 22.9344 29.0445C21.825 29.0445 20.9256 28.1452 20.9256 27.0357V22.9563C20.9256 22.2856 20.3818 21.7418 19.7111 21.7418C18.616 21.7418 18.0802 20.4066 18.8716 19.6496L21.2008 17.4216C22.1704 16.494 23.6983 16.494 24.668 17.4216L26.9972 19.6496Z" fill="#915FD7"/>
</svg>
