<svg width="32" height="32" viewBox="0 0 32 32" fill="none" xmlns="http://www.w3.org/2000/svg">
<path d="M31.0547 26.4902C32.3153 27.7509 32.3153 29.7941 31.0547 31.0547C30.4249 31.6845 29.5987 32 28.7725 32C27.9462 32 27.12 31.6845 26.4902 31.0547L21.1553 25.7197C22.9764 24.5348 24.5348 22.9764 25.7197 21.1553L31.0547 26.4902ZM12.7266 0C15.066 7.94185e-05 17.2607 0.635593 19.1465 1.74121C21.0303 2.84684 22.6052 4.42183 23.7109 6.30566C24.8166 8.19154 25.4521 10.3869 25.4521 12.7266C25.4521 15.066 24.8166 17.2607 23.7109 19.1465C22.6053 21.0304 21.0303 22.6052 19.1465 23.7109C17.2607 24.8166 15.066 25.4521 12.7266 25.4521C10.387 25.4521 8.19154 24.8166 6.30566 23.7109C4.42182 22.6053 2.84689 21.0304 1.74121 19.1465C0.635573 17.2606 5.66299e-05 15.0661 0 12.7266C0 10.3869 0.635523 8.19154 1.74121 6.30566C2.84691 4.42179 4.42184 2.84684 6.30566 1.74121C8.19154 0.635461 10.387 0 12.7266 0ZM12.7266 6.45508C12.2028 6.45508 11.693 6.51985 11.2061 6.6416C8.96728 7.20052 7.20057 8.96729 6.6416 11.2061C6.51985 11.6929 6.45508 12.2028 6.45508 12.7266C6.4551 13.2502 6.51988 13.7593 6.6416 14.2461C7.20047 16.485 8.9672 18.2516 11.2061 18.8105C11.693 18.9323 12.2028 18.9971 12.7266 18.9971C13.2502 18.997 13.7593 18.9323 14.2461 18.8105C16.485 18.2517 18.2517 16.485 18.8105 14.2461C18.9322 13.7593 18.997 13.2502 18.9971 12.7266C18.9971 12.2028 18.9323 11.693 18.8105 11.2061C18.2516 8.96721 16.4849 7.20049 14.2461 6.6416C13.7594 6.51995 13.2502 6.45511 12.7266 6.45508Z" fill="#AFAFAF"/>
</svg>
