<svg width="23" height="23" viewBox="0 0 23 23" fill="none" xmlns="http://www.w3.org/2000/svg">
<circle cx="11.5" cy="11.5" r="11.5" fill="#915FD7"/>
<path d="M10.8057 9.50098C10.8057 11.0732 9.9375 12.0576 8.55664 12.0576C7.18262 12.0576 6.30762 11.0732 6.30762 9.50098C6.30762 7.93555 7.18262 6.94434 8.55664 6.94434C9.9375 6.94434 10.8057 7.93555 10.8057 9.50098ZM8.55664 10.8477C9.00098 10.8477 9.27441 10.3418 9.27441 9.49414C9.27441 8.64648 9.00098 8.13379 8.55664 8.13379C8.1123 8.13379 7.83887 8.64648 7.83887 9.49414C7.83887 10.3418 8.1123 10.8477 8.55664 10.8477ZM8.93945 17H7.28516L11.1133 11.7568L14.4834 7.13574H16.1309L12.4121 12.2354L8.93945 17ZM17.1084 14.5801C17.1084 16.1523 16.2402 17.1436 14.8594 17.1436C13.4854 17.1436 12.6104 16.1523 12.6104 14.5801C12.6104 13.0146 13.4854 12.0234 14.8594 12.0234C16.2402 12.0234 17.1084 13.0146 17.1084 14.5801ZM14.8594 15.9268C15.3037 15.9268 15.5771 15.4209 15.5771 14.5732C15.5771 13.7256 15.3037 13.2129 14.8594 13.2129C14.415 13.2129 14.1416 13.7256 14.1416 14.5732C14.1416 15.4209 14.415 15.9268 14.8594 15.9268Z" fill="white"/>
</svg>
