<svg width="23" height="23" viewBox="0 0 23 23" fill="none" xmlns="http://www.w3.org/2000/svg">
<path d="M22.9618 8.68623C22.8762 8.43183 22.6549 8.24649 22.3886 8.2057L15.3182 7.13017L12.1503 0.411466C12.0317 0.160293 11.778 0 11.4995 0C11.221 0 10.9676 0.160293 10.8487 0.411466L7.68078 7.13017L0.61044 8.20606C0.344143 8.24649 0.123128 8.43219 0.037237 8.68658C-0.0482942 8.94062 0.0160339 9.22113 0.204346 9.41327L5.34125 14.6575L4.12728 22.0653C4.08272 22.3358 4.19736 22.6081 4.42269 22.7655C4.54632 22.8525 4.69114 22.8965 4.83633 22.8965C4.95564 22.8965 5.07567 22.8664 5.18421 22.807L11.4991 19.3296L17.8141 22.807C17.9226 22.8664 18.0426 22.8965 18.162 22.8965C18.3071 22.8965 18.4523 22.8525 18.5756 22.7655C18.8009 22.6081 18.9156 22.3358 18.871 22.0653L17.657 14.6575L22.7939 9.41327C22.9826 9.22077 23.0473 8.94026 22.9618 8.68623Z" fill="#DA9169"/>
</svg>
